<svg width="79" height="78" viewBox="0 0 79 78" fill="none" xmlns="http://www.w3.org/2000/svg">
<g id="group" clip-path="url(#clip0_94_438)" filter="url(#filter0_d_94_438)">
<g id="Group" filter="url(#filter1_d_94_438)">
<g id="Group_2">
<path id="Vector" d="M77.9413 38.0704L79.4684 38.0704C81.9759 38.0704 83.9933 40.1066 83.9933 42.5953L83.9933 49.7031C83.9933 50.1556 83.767 50.5704 83.39 50.8155C82.8621 51.1548 82.5604 51.7393 82.5604 52.3615L82.5604 59.2053C82.5604 60.0537 83.0317 60.789 83.7859 61.1661C84.672 61.5997 89.2723 63.9187 93.5332 67.4255C93.8914 67.7271 94.0988 68.1608 94.0988 68.651L94.0988 73.5152C94.0988 74.5522 94.9284 75.3817 95.9653 75.3817C97.0023 75.3817 97.8318 74.5522 97.8318 73.5152L97.8318 68.651C97.8318 67.0484 97.1342 65.559 95.8899 64.5409C92.138 61.4489 88.1222 59.2242 86.2746 58.2626L86.2746 53.2287C87.1795 52.286 87.7074 51.0417 87.7074 49.7031L87.7074 42.5953C87.7074 38.0327 83.9933 34.3374 79.4496 34.3374L77.9224 34.3374C73.3599 34.3374 69.6646 38.0516 69.6646 42.5953L69.6646 49.7031C69.6646 51.0417 70.1925 52.286 71.0974 53.2287L71.0974 55.6608C71.0974 56.6978 71.927 57.5273 72.9639 57.5273C74.0009 57.5273 74.8304 56.6978 74.8304 55.6608L74.8304 52.3803C74.8304 51.7581 74.5099 51.1737 74.0009 50.8343C73.6238 50.5892 73.3976 50.1744 73.3976 49.7219L73.3976 42.6141C73.3976 40.1066 75.4337 38.0704 77.9413 38.0704Z" fill="#F14D34" stroke="#F14D34" stroke-width="1.7"/>
<path id="Vector_2" d="M7.33462 64.5597C6.10914 65.5778 5.3927 67.0672 5.3927 68.6698L5.3927 73.534C5.3927 74.571 6.22226 75.4005 7.25921 75.4005C8.29616 75.4005 9.12571 74.571 9.12571 73.534L9.12571 68.6698C9.12571 68.1984 9.3331 67.7459 9.69132 67.4443C13.9522 63.9564 18.5525 61.6185 19.4386 61.1849C20.1928 60.8078 20.6641 60.0725 20.6641 59.2241L20.6641 52.3803C20.6641 51.7581 20.3436 51.1736 19.8346 50.8343C19.4575 50.5892 19.2312 50.1744 19.2312 49.7219L19.2312 42.6141C19.2312 40.1066 21.2674 38.0892 23.7561 38.0892L25.2833 38.0892C27.7908 38.0892 29.8081 40.1254 29.8081 42.6141L29.8081 49.7219C29.8081 50.1744 29.5819 50.5892 29.2048 50.8343C28.6769 51.1736 28.3752 51.7581 28.3752 52.3803L28.3752 55.8116C28.3752 56.8486 29.2048 57.6781 30.2418 57.6781C31.2787 57.6781 32.1083 56.8486 32.1083 55.8116L32.1083 53.2475C33.0132 52.3048 33.5411 51.0605 33.5411 49.7219L33.5411 42.6141C33.5411 38.0515 29.827 34.3562 25.2833 34.3562L23.7561 34.3562C19.1935 34.3562 15.4982 38.0704 15.4982 42.6141L15.4982 49.7219C15.4982 51.0605 16.0261 52.3048 16.9311 53.2475L16.9311 58.2814C15.1023 59.243 11.0865 61.4865 7.33462 64.5597Z" fill="#F14D34" stroke="#F14D34" stroke-width="1.7"/>
<path id="Vector_3" d="M74.0575 75.4006C75.0945 75.4006 75.924 74.571 75.924 73.5341L75.924 67.237C75.924 65.3327 75.0945 63.5605 73.6239 62.3539C68.59 58.2061 63.1979 55.2649 60.992 54.1337L60.992 47.0447C62.1609 45.9135 62.8396 44.3675 62.8396 42.7084L62.8396 33.5079C62.8396 27.9083 58.2771 23.3646 52.6964 23.3646L50.7168 23.3646C45.1173 23.3646 40.5735 27.9272 40.5735 33.5079L40.5735 42.7084C40.5735 44.3675 41.2523 45.9135 42.4212 47.0447L42.4212 54.1337C40.2153 55.2649 34.8232 58.2061 29.7893 62.3539C28.3187 63.5605 27.4891 65.3327 27.4891 67.2369L27.4891 73.534C27.4891 74.571 28.3187 75.4006 29.3556 75.4006C30.3926 75.4006 31.2221 74.571 31.2221 73.5341L31.2221 67.2369C31.2221 66.464 31.5615 65.7287 32.1648 65.2385C37.7266 60.6759 43.7409 57.6405 44.891 57.0749C45.6829 56.6978 46.1731 55.9059 46.1731 55.0387L46.1731 46.1775C46.1731 45.5553 45.8525 44.9708 45.3435 44.6315C44.7025 44.1978 44.3254 43.5003 44.3254 42.7273L44.3254 33.5267C44.3254 29.9822 47.21 27.1165 50.7356 27.1165L52.7153 27.1165C56.2597 27.1165 59.1255 30.0011 59.1255 33.5267L59.1255 42.7273C59.1255 43.4814 58.7484 44.1978 58.1074 44.6315C57.5795 44.9708 57.2778 45.5553 57.2778 46.1775L57.2778 55.0387C57.2778 55.9059 57.768 56.6978 58.5599 57.0937C59.7099 57.6593 65.7242 60.6948 71.2861 65.2573C71.8894 65.7475 72.2287 66.4828 72.2287 67.2558L72.2287 73.5529C72.191 74.571 73.0206 75.4006 74.0575 75.4006Z" fill="#F14D34" stroke="#F14D34" stroke-width="1.7"/>
</g>
</g>
</g>
<defs>
<filter id="filter0_d_94_438" x="-0.6073" y="0.163086" width="94.4392" height="94.4392" filterUnits="userSpaceOnUse" color-interpolation-filters="sRGB">
<feFlood flood-opacity="0" result="BackgroundImageFix"/>
<feColorMatrix in="SourceAlpha" type="matrix" values="0 0 0 0 0 0 0 0 0 0 0 0 0 0 0 0 0 0 127 0" result="hardAlpha"/>
<feOffset dy="1"/>
<feGaussianBlur stdDeviation="0.5"/>
<feColorMatrix type="matrix" values="0 0 0 0 0 0 0 0 0 0 0 0 0 0 0 0 0 0 0.1 0"/>
<feBlend mode="normal" in2="BackgroundImageFix" result="effect1_dropShadow_94_438"/>
<feBlend mode="normal" in="SourceGraphic" in2="effect1_dropShadow_94_438" result="shape"/>
</filter>
<filter id="filter1_d_94_438" x="3.54272" y="22.5146" width="96.139" height="55.736" filterUnits="userSpaceOnUse" color-interpolation-filters="sRGB">
<feFlood flood-opacity="0" result="BackgroundImageFix"/>
<feColorMatrix in="SourceAlpha" type="matrix" values="0 0 0 0 0 0 0 0 0 0 0 0 0 0 0 0 0 0 127 0" result="hardAlpha"/>
<feOffset dy="1"/>
<feGaussianBlur stdDeviation="0.5"/>
<feColorMatrix type="matrix" values="0 0 0 0 0 0 0 0 0 0 0 0 0 0 0 0 0 0 0.05 0"/>
<feBlend mode="normal" in2="BackgroundImageFix" result="effect1_dropShadow_94_438"/>
<feBlend mode="normal" in="SourceGraphic" in2="effect1_dropShadow_94_438" result="shape"/>
</filter>
<clipPath id="clip0_94_438">
<rect width="92.4392" height="92.4392" fill="white" transform="translate(0.3927 0.163086)"/>
</clipPath>
</defs>
</svg>
