<svg width="78" height="78" viewBox="0 0 78 78" fill="none" xmlns="http://www.w3.org/2000/svg">
<g id="group" clip-path="url(#clip0_94_480)" filter="url(#filter0_d_94_480)">
<g id="Group" filter="url(#filter1_d_94_480)">
<g id="Group_2">
<path id="Vector" d="M56.4632 62.1957C55.3013 61.6022 54.5821 60.4152 54.5821 59.1152L54.5821 45.8326C54.5821 44.9 55.0247 44.0239 55.7992 43.5152C56.7398 42.8652 57.293 41.7913 57.293 40.6609L57.293 26.8696C57.293 21.5848 53.0882 17.2609 47.8876 17.2609L44.9829 17.2609C39.8099 17.2609 35.5775 21.5565 35.5775 26.8696L35.5775 40.6609C35.5775 41.8196 36.1307 42.8652 37.0713 43.5152M56.4632 62.1957L17.7347 74.4044C25.8954 67.5652 34.7199 63.0152 36.4074 62.1674C37.5692 61.6022 38.2885 60.4152 38.2885 59.1152L38.2885 45.8326C38.2885 44.9 37.8182 44.0239 37.0713 43.5152M56.4632 62.1957C58.1506 63.0435 66.9752 67.5935 75.1358 74.4326L56.4632 62.1957ZM37.0713 43.5152L37.3527 43.102C37.3532 43.1023 37.3537 43.1026 37.3542 43.103M37.0713 43.5152L37.3555 43.1039C37.3551 43.1036 37.3547 43.1033 37.3542 43.103M37.3542 43.103C36.5494 42.5461 36.0775 41.6546 36.0775 40.6609L36.0775 26.8696C36.0775 21.8235 40.0951 17.7609 44.9829 17.7609L47.8876 17.7609C52.8011 17.7609 56.793 21.8498 56.793 26.8696L56.793 40.6609C56.793 41.6273 56.3206 42.5449 55.5195 43.1008C54.5978 43.7087 54.0821 44.7456 54.0821 45.8326L54.0821 59.1152C54.0821 60.6015 54.9052 61.9613 56.2357 62.6409L56.2387 62.6424C57.9145 63.4844 66.6984 68.0139 74.8146 74.8158L74.8164 74.8173C75.5824 75.4531 76.0189 76.4119 76.0189 77.4283L76.0189 86.8587C75.9586 88.6673 77.4044 90.137 79.2023 90.137C81.0099 90.137 82.4409 88.6595 82.4409 86.8391L82.4409 77.4C82.4409 74.402 81.1615 71.604 78.888 69.6979C71.6587 63.6125 63.9348 59.2545 60.5317 57.4568L60.5317 47.3382C62.2495 45.5643 63.2427 43.1823 63.2427 40.6326L63.2427 26.8413C63.2427 18.1812 56.3338 11.137 47.8599 11.137L44.9553 11.137C36.4526 11.137 29.5725 18.2107 29.5725 26.8413L29.5725 40.6326C29.5725 43.1823 30.5657 45.5643 32.2835 47.3382L32.2835 57.4568C28.8804 59.2546 21.1565 63.6125 13.9272 69.6979C11.6537 71.604 10.3743 74.402 10.3743 77.4L10.3743 86.8391C10.3743 88.6595 11.8053 90.137 13.6129 90.137C15.4206 90.137 16.8516 88.6595 16.8516 86.8391L16.8516 77.4C16.8516 76.3836 17.2882 75.4249 18.0541 74.7891L18.0559 74.7876C26.1675 67.9895 34.9461 63.4613 36.629 62.6156C37.9674 61.9631 38.7885 60.5985 38.7885 59.1152L38.7885 45.8326C38.7885 44.7355 38.2372 43.7051 37.3542 43.103Z" fill="#F14D34" stroke="#F14D34"/>
</g>
</g>
</g>
<defs>
<filter id="filter0_d_94_480" x="-1" y="0" width="94.4392" height="94.4392" filterUnits="userSpaceOnUse" color-interpolation-filters="sRGB">
<feFlood flood-opacity="0" result="BackgroundImageFix"/>
<feColorMatrix in="SourceAlpha" type="matrix" values="0 0 0 0 0 0 0 0 0 0 0 0 0 0 0 0 0 0 127 0" result="hardAlpha"/>
<feOffset dy="1"/>
<feGaussianBlur stdDeviation="0.5"/>
<feColorMatrix type="matrix" values="0 0 0 0 0 0 0 0 0 0 0 0 0 0 0 0 0 0 0.1 0"/>
<feBlend mode="normal" in2="BackgroundImageFix" result="effect1_dropShadow_94_480"/>
<feBlend mode="normal" in="SourceGraphic" in2="effect1_dropShadow_94_480" result="shape"/>
</filter>
<filter id="filter1_d_94_480" x="8.87427" y="10.637" width="75.0667" height="82" filterUnits="userSpaceOnUse" color-interpolation-filters="sRGB">
<feFlood flood-opacity="0" result="BackgroundImageFix"/>
<feColorMatrix in="SourceAlpha" type="matrix" values="0 0 0 0 0 0 0 0 0 0 0 0 0 0 0 0 0 0 127 0" result="hardAlpha"/>
<feOffset dy="1"/>
<feGaussianBlur stdDeviation="0.5"/>
<feColorMatrix type="matrix" values="0 0 0 0 0 0 0 0 0 0 0 0 0 0 0 0 0 0 0.05 0"/>
<feBlend mode="normal" in2="BackgroundImageFix" result="effect1_dropShadow_94_480"/>
<feBlend mode="normal" in="SourceGraphic" in2="effect1_dropShadow_94_480" result="shape"/>
</filter>
<clipPath id="clip0_94_480">
<rect width="92.4392" height="92.4392" fill="white"/>
</clipPath>
</defs>
</svg>
